<svg width="24" height="24" viewBox="0 0 24 24" fill="none" xmlns="http://www.w3.org/2000/svg">
<path d="M2 6C2 4.93913 2.42143 3.92172 3.17157 3.17157C3.92172 2.42143 4.93913 2 6 2H18C19.0609 2 20.0783 2.42143 20.8284 3.17157C21.5786 3.92172 22 4.93913 22 6V14C22 15.0609 21.5786 16.0783 20.8284 16.8284C20.0783 17.5786 19.0609 18 18 18H13.302L7.554 21.832C7.40341 21.9322 7.22846 21.9897 7.04778 21.9983C6.86711 22.007 6.68747 21.9665 6.528 21.8811C6.36853 21.7957 6.23521 21.6687 6.14223 21.5135C6.04925 21.3584 6.00009 21.1809 6 21V18C4.93913 18 3.92172 17.5786 3.17157 16.8284C2.42143 16.0783 2 15.0609 2 14V6ZM6 4C5.46957 4 4.96086 4.21071 4.58579 4.58579C4.21071 4.96086 4 5.46957 4 6V14C4 14.5304 4.21071 15.0391 4.58579 15.4142C4.96086 15.7893 5.46957 16 6 16H7C7.26522 16 7.51957 16.1054 7.70711 16.2929C7.89464 16.4804 8 16.7348 8 17V19.132L12.446 16.168C12.6101 16.0586 12.8028 16.0002 13 16H18C18.5304 16 19.0391 15.7893 19.4142 15.4142C19.7893 15.0391 20 14.5304 20 14V6C20 5.46957 19.7893 4.96086 19.4142 4.58579C19.0391 4.21071 18.5304 4 18 4H6Z" fill="white"/>
</svg>
