<svg width="24" height="24" viewBox="0 0 24 24" fill="none" xmlns="http://www.w3.org/2000/svg">
<path d="M14.3477 6.34778L15.7616 4.93388C15.939 4.75637 16.1497 4.61556 16.3816 4.51949C16.6134 4.42342 16.862 4.37398 17.1129 4.37398C17.3639 4.37398 17.6124 4.42342 17.8443 4.51949C18.0762 4.61556 18.2868 4.75637 18.4643 4.93388L19.8151 6.28473C20.1733 6.64303 20.3745 7.12894 20.3745 7.63558C20.3745 8.14223 20.1733 8.62813 19.8151 8.98643L18.4012 10.4003M14.3477 6.34778L5.16115 15.5334C4.84396 15.8506 4.64849 16.2693 4.60897 16.7161L4.37777 19.3337C4.36536 19.4729 4.38361 19.6131 4.43125 19.7444C4.47889 19.8757 4.55475 19.995 4.65349 20.0939C4.75224 20.1927 4.87145 20.2687 5.00274 20.3164C5.13403 20.3642 5.2742 20.3826 5.41336 20.3703L8.031 20.1391C8.4785 20.1 8.89793 19.9045 9.21562 19.5869L18.4012 10.4003M14.3477 6.34778L18.4012 10.4003" stroke="white" stroke-width="1.7" stroke-linecap="round" stroke-linejoin="round"/>
</svg>
