<svg width="24" height="24" viewBox="0 0 24 24" fill="none" xmlns="http://www.w3.org/2000/svg">
<path d="M12.4774 18.5516C12.2858 18.7315 12.19 18.8215 12.077 18.8437C12.0262 18.8537 11.9739 18.8537 11.923 18.8437C11.81 18.8215 11.7142 18.7315 11.5226 18.5516L5.96055 13.3266C4.39561 11.8565 4.20557 9.43728 5.52176 7.74085L5.76925 7.42187C7.34379 5.39246 10.5043 5.73281 11.6107 8.05092C11.767 8.37837 12.2331 8.37837 12.3893 8.05092C13.4957 5.73281 16.6562 5.39246 18.2308 7.42187L18.4783 7.74085C19.7945 9.43728 19.6044 11.8565 18.0395 13.3266L12.4774 18.5516Z" fill="white" stroke="white" strokeWidth="1.36"/>
</svg>
