<svg width="24" height="24" viewBox="0 0 24 24" fill="none" xmlns="http://www.w3.org/2000/svg">
<path d="M11.3741 4.12443C11.073 4.24879 10.8038 4.51878 10.2647 5.05712C9.72551 5.5971 9.45553 5.86627 9.33199 6.16653C9.24972 6.36508 9.20738 6.5779 9.20738 6.79282C9.20738 7.00774 9.24972 7.22055 9.33199 7.41911C9.45553 7.72019 9.7247 7.98936 10.2647 8.52852C10.803 9.06768 11.073 9.33766 11.3741 9.46121C11.7748 9.62711 12.2251 9.62711 12.6258 9.46121C12.9269 9.33766 13.1961 9.06849 13.7353 8.52852C14.2744 7.98854 14.5436 7.72019 14.6679 7.41911C14.8338 7.01835 14.8338 6.56811 14.6679 6.16734C14.5436 5.86627 14.2752 5.5971 13.7353 5.05794C13.1953 4.51878 12.9269 4.24879 12.6258 4.12443C12.2251 3.95852 11.7748 3.95852 11.3741 4.12443ZM6.16657 9.33112C5.86631 9.45548 5.59633 9.72465 5.05798 10.2638C4.51801 10.8038 4.24884 11.073 4.12448 11.3732C4.04222 11.5718 3.99988 11.7846 3.99988 11.9995C3.99988 12.2144 4.04222 12.4272 4.12448 12.6258C4.24884 12.9269 4.51883 13.196 5.05717 13.7352C5.59714 14.2744 5.86631 14.5435 6.16657 14.6679C6.36513 14.7502 6.57794 14.7925 6.79287 14.7925C7.00779 14.7925 7.2206 14.7502 7.41916 14.6679C7.72024 14.5435 7.98941 14.2744 8.52856 13.7352C9.06772 13.196 9.33689 12.9269 9.46125 12.6258C9.62716 12.225 9.62716 11.7748 9.46125 11.374C9.33689 11.073 9.06854 10.803 8.52856 10.2638C7.98859 9.72465 7.72024 9.45548 7.41916 9.33112C7.01839 9.16521 6.56734 9.16521 6.16657 9.33112ZM15.4714 10.2638C14.9322 10.8038 14.663 11.073 14.5387 11.3732C14.4564 11.5718 14.4141 11.7846 14.4141 11.9995C14.4141 12.2144 14.4564 12.4272 14.5387 12.6258C14.663 12.9269 14.9322 13.196 15.4714 13.7352C16.0105 14.2744 16.2805 14.5435 16.5808 14.6679C16.9815 14.8338 17.4318 14.8338 17.8325 14.6679C18.1336 14.5435 18.4036 14.2744 18.9428 13.7352C19.4819 13.196 19.7503 12.9269 19.8754 12.6258C20.0414 12.225 20.0414 11.7748 19.8754 11.374C19.7503 11.073 19.4819 10.803 18.9428 10.2638C18.4028 9.72465 18.1336 9.45548 17.8334 9.33112C17.6348 9.24886 17.422 9.20652 17.2071 9.20652C16.9921 9.20652 16.7793 9.24886 16.5808 9.33112C16.2805 9.45548 16.0105 9.72465 15.4714 10.2638ZM11.3741 14.5378C11.073 14.6622 10.8038 14.9322 10.2647 15.4705C9.72551 16.0105 9.45553 16.2796 9.33199 16.5807C9.16608 16.9815 9.16608 17.4317 9.33199 17.8325C9.45553 18.1336 9.7247 18.4027 10.2647 18.9419C10.803 19.4811 11.073 19.751 11.3741 19.8746C11.7748 20.0405 12.2251 20.0405 12.6258 19.8746C12.9269 19.751 13.1961 19.4819 13.7353 18.9419C14.2744 18.4019 14.5436 18.1336 14.6679 17.8325C14.834 17.4316 14.834 16.9816 14.6679 16.5807C14.5436 16.2796 14.2752 16.0097 13.7353 15.4713C13.1961 14.9313 12.9269 14.6622 12.6258 14.5378C12.2251 14.3719 11.7748 14.3719 11.3741 14.5378Z" stroke="white" strokeWidth="1.39085" strokeLinecap="round" strokeLinejoin="round"/>
</svg>
