<svg width="24" height="24" viewBox="0 0 24 24" fill="none" xmlns="http://www.w3.org/2000/svg">
<path fill-rule="evenodd" clip-rule="evenodd" d="M12 9.20929C11.2598 9.20929 10.55 9.50331 10.0267 10.0267C9.50331 10.55 9.20929 11.2598 9.20929 12C9.20929 12.7401 9.50331 13.45 10.0267 13.9733C10.55 14.4967 11.2598 14.7907 12 14.7907C12.7401 14.7907 13.45 14.4967 13.9733 13.9733C14.4967 13.45 14.7907 12.7401 14.7907 12C14.7907 11.2598 14.4967 10.55 13.9733 10.0267C13.45 9.50331 12.7401 9.20929 12 9.20929ZM10.3256 12C10.3256 11.5559 10.502 11.13 10.816 10.816C11.13 10.502 11.5559 10.3256 12 10.3256C12.4441 10.3256 12.87 10.502 13.184 10.816C13.498 11.13 13.6744 11.5559 13.6744 12C13.6744 12.4441 13.498 12.87 13.184 13.184C12.87 13.498 12.4441 13.6744 12 13.6744C11.5559 13.6744 11.13 13.498 10.816 13.184C10.502 12.87 10.3256 12.4441 10.3256 12Z" fill="white"/>
<path fill-rule="evenodd" clip-rule="evenodd" d="M11.9814 4C11.6502 4 11.3741 4 11.1479 4.01488C10.9166 4.0242 10.6885 4.07198 10.4729 4.15628C10.2245 4.25904 9.99884 4.40973 9.80871 4.59973C9.61859 4.78973 9.46775 5.01532 9.36482 5.26363C9.25691 5.52409 9.22789 5.79944 9.21598 6.0986C9.21465 6.20799 9.18563 6.31525 9.13162 6.41038C9.07762 6.50551 9.00039 6.5854 8.90714 6.6426C8.81101 6.69494 8.70318 6.72204 8.59373 6.72139C8.48428 6.72074 8.37678 6.69236 8.28128 6.63888C8.01635 6.49898 7.76333 6.3866 7.48352 6.3494C7.21706 6.31435 6.9463 6.33212 6.68671 6.40171C6.42712 6.4713 6.18378 6.59134 5.97058 6.75498C5.79004 6.8997 5.63486 7.07349 5.51142 7.26921C5.38491 7.45823 5.24649 7.69712 5.08128 7.98363L5.06268 8.01637C4.89672 8.30288 4.75905 8.54177 4.65933 8.74567C4.55514 8.95851 4.47328 9.16837 4.44351 9.40056C4.37252 9.9386 4.51814 10.4828 4.84835 10.9135C5.02026 11.1375 5.24426 11.3005 5.49728 11.4597C5.59152 11.5156 5.67004 11.5945 5.72549 11.689C5.78093 11.7835 5.81149 11.8905 5.81431 12C5.81149 12.1095 5.78093 12.2165 5.72549 12.311C5.67004 12.4055 5.59152 12.4844 5.49728 12.5403C5.24426 12.6995 5.021 12.8625 4.84835 13.0865C4.68472 13.2997 4.56468 13.543 4.49509 13.8026C4.4255 14.0622 4.40772 14.333 4.44277 14.5994C4.47328 14.8316 4.5544 15.0415 4.65858 15.2543C4.75905 15.4582 4.89672 15.6971 5.06268 15.9836L5.08128 16.0164C5.24649 16.3029 5.38491 16.5418 5.51142 16.7308C5.64314 16.9265 5.78454 17.1029 5.97058 17.2443C6.18373 17.408 6.42704 17.5282 6.68663 17.5979C6.94622 17.6677 7.21701 17.6855 7.48352 17.6506C7.76333 17.6134 8.01635 17.5018 8.28128 17.3611C8.37669 17.3078 8.48406 17.2795 8.59336 17.2788C8.70267 17.2782 8.81036 17.3052 8.9064 17.3574C9.0004 17.4139 9.07831 17.4936 9.13265 17.5888C9.18699 17.6841 9.21594 17.7917 9.21672 17.9014C9.22789 18.2006 9.25691 18.4759 9.36556 18.7364C9.46833 18.9847 9.61901 19.2104 9.80901 19.4006C9.99901 19.5907 10.2246 19.7415 10.4729 19.8445C10.6887 19.9338 10.912 19.9687 11.1479 19.9844C11.3741 20 11.6502 20 11.9814 20H12.0186C12.3497 20 12.6258 20 12.8521 19.9851C13.0887 19.9687 13.3112 19.9338 13.5271 19.8437C13.7754 19.741 14.0011 19.5903 14.1912 19.4003C14.3814 19.2103 14.5322 18.9847 14.6351 18.7364C14.7431 18.4759 14.7721 18.2006 14.784 17.9014C14.7852 17.7919 14.8141 17.6845 14.8682 17.5892C14.9222 17.4939 14.9995 17.4139 15.0928 17.3567C15.189 17.3044 15.2969 17.2775 15.4063 17.2782C15.5158 17.279 15.6232 17.3075 15.7187 17.3611C15.9836 17.501 16.2366 17.6134 16.5164 17.6499C17.0545 17.7209 17.5987 17.5752 18.0294 17.245C18.2154 17.1021 18.3568 16.9265 18.4885 16.7308C18.615 16.5418 18.7535 16.3029 18.9187 16.0164L18.9373 15.9836C19.1032 15.6971 19.2409 15.4582 19.3406 15.2543C19.4448 15.0415 19.5267 14.8309 19.5564 14.5994C19.6274 14.0614 19.4818 13.5172 19.1516 13.0865C18.9797 12.8625 18.7557 12.6995 18.5027 12.5403C18.4084 12.4844 18.3299 12.4055 18.2745 12.311C18.219 12.2165 18.1885 12.1095 18.1857 12C18.1857 11.7931 18.2988 11.5877 18.5027 11.4597C18.7557 11.3005 18.979 11.1375 19.1516 10.9135C19.3152 10.7003 19.4353 10.457 19.5049 10.1974C19.5745 9.93777 19.5922 9.66702 19.5572 9.40056C19.5221 9.17179 19.4492 8.95047 19.3414 8.74567C19.2143 8.49844 19.0795 8.25522 18.9373 8.01637L18.9187 7.98363C18.7827 7.74108 18.6393 7.50283 18.4885 7.26921C18.365 7.07376 18.2099 6.90022 18.0294 6.75572C17.8162 6.59196 17.5729 6.47178 17.3133 6.40207C17.0537 6.33235 16.783 6.31445 16.5164 6.3494C16.2366 6.3866 15.9836 6.49823 15.7187 6.63888C15.6233 6.69222 15.5159 6.72054 15.4066 6.72119C15.2973 6.72184 15.1896 6.6948 15.0936 6.6426C15 6.58558 14.9225 6.50577 14.8682 6.41062C14.814 6.31548 14.7847 6.20813 14.7832 6.0986C14.7721 5.79944 14.743 5.52409 14.6344 5.26363C14.5316 5.01526 14.3809 4.78956 14.1909 4.59943C14.0009 4.4093 13.7754 4.25847 13.5271 4.15553C13.3112 4.06623 13.088 4.03126 12.8521 4.01563C12.6258 4 12.3497 4 12.0186 4H11.9814ZM10.9001 5.18698C10.9574 5.16316 11.0444 5.14158 11.2238 5.12893C11.4076 5.11628 11.6457 5.11628 12 5.11628C12.3542 5.11628 12.5924 5.11628 12.7762 5.12893C12.9555 5.14158 13.0426 5.16316 13.0999 5.18698C13.3284 5.28149 13.5092 5.46233 13.6037 5.69079C13.6335 5.76223 13.658 5.8746 13.6677 6.14028C13.69 6.72967 13.9944 7.29749 14.5347 7.6093C15.075 7.92112 15.7187 7.90102 16.2404 7.62567C16.4755 7.5014 16.5849 7.46642 16.6623 7.45674C16.9068 7.42443 17.1542 7.49055 17.3499 7.64056C17.399 7.67851 17.4616 7.74326 17.562 7.89209C17.6655 8.0454 17.7845 8.25153 17.9617 8.55814C18.1388 8.86474 18.2571 9.07163 18.3382 9.23684C18.4178 9.39833 18.4424 9.48465 18.4498 9.54642C18.4822 9.79093 18.416 10.0383 18.266 10.234C18.2184 10.2958 18.1336 10.3732 17.9088 10.5146C17.4087 10.8287 17.0694 11.3764 17.0694 12C17.0694 12.6236 17.4087 13.1713 17.9088 13.4854C18.1336 13.6268 18.2184 13.7042 18.266 13.766C18.4164 13.9617 18.4818 14.2087 18.4498 14.4536C18.4424 14.5153 18.4171 14.6024 18.3382 14.7632C18.2571 14.9291 18.1388 15.1353 17.9617 15.4419C17.7845 15.7485 17.6647 15.9546 17.562 16.1079C17.4616 16.2567 17.399 16.3215 17.3499 16.3594C17.1542 16.5094 16.9068 16.5756 16.6623 16.5433C16.5849 16.5336 16.4763 16.4986 16.2404 16.3743C15.7194 16.099 15.075 16.0781 14.5347 16.39C13.9944 16.7018 13.69 17.2703 13.6677 17.8597C13.658 18.1254 13.6335 18.2378 13.6037 18.3092C13.557 18.4222 13.4884 18.5248 13.4019 18.6113C13.3155 18.6977 13.2129 18.7663 13.0999 18.813C13.0426 18.8368 12.9555 18.8584 12.7762 18.8711C12.5924 18.8837 12.3542 18.8837 12 18.8837C11.6457 18.8837 11.4076 18.8837 11.2238 18.8711C11.0444 18.8584 10.9574 18.8368 10.9001 18.813C10.7871 18.7663 10.6845 18.6977 10.598 18.6113C10.5116 18.5248 10.443 18.4222 10.3963 18.3092C10.3665 18.2378 10.3419 18.1254 10.3323 17.8597C10.3099 17.2703 10.0056 16.7025 9.46528 16.3907C8.925 16.0789 8.28128 16.099 7.75961 16.3743C7.52445 16.4986 7.41505 16.5336 7.33765 16.5433C7.09314 16.5756 6.8458 16.5094 6.65003 16.3594C6.60091 16.3215 6.5384 16.2567 6.43793 16.1079C6.29794 15.89 6.16467 15.6679 6.03831 15.4419C5.86119 15.1353 5.74286 14.9284 5.66175 14.7632C5.58212 14.6017 5.55756 14.5153 5.55012 14.4536C5.51781 14.2091 5.58393 13.9617 5.73393 13.766C5.78156 13.7042 5.8664 13.6268 6.09114 13.4854C6.59124 13.1713 6.93058 12.6236 6.93058 12C6.93058 11.3764 6.59124 10.8287 6.09114 10.5146C5.8664 10.3732 5.78156 10.2958 5.73393 10.234C5.58393 10.0383 5.51781 9.79093 5.55012 9.54642C5.55756 9.48465 5.58286 9.39758 5.66175 9.23684C5.74286 9.07088 5.86119 8.86474 6.03831 8.55814C6.21542 8.25153 6.33524 8.0454 6.43793 7.89209C6.5384 7.74326 6.60091 7.67851 6.65003 7.64056C6.8458 7.49055 7.09314 7.42443 7.33765 7.45674C7.41505 7.46642 7.5237 7.5014 7.75961 7.62567C8.28054 7.90102 8.925 7.92186 9.46528 7.6093C10.0056 7.29749 10.3099 6.72967 10.3323 6.14028C10.3419 5.8746 10.3665 5.76223 10.3963 5.69079C10.4908 5.46233 10.6716 5.28149 10.9001 5.18698Z" fill="white"/>
</svg>
