<svg width="375" height="812" viewBox="0 0 375 812" fill="none" xmlns="http://www.w3.org/2000/svg">
<g clip-path="url(#clip0_1009_131)">
<rect width="375" height="812" rx="30" fill="#010101"/>
<g filter="url(#filter0_f_1009_131)">
<path d="M474.5 288.5C536 288.5 596.896 828.956 453 903C309.104 977.045 84.9186 881.449 47.2651 808.275C22.8382 760.804 132 733 207 705.5C252 689 316.5 702.864 353.5 627.5C404 463.864 376.189 288.5 474.5 288.5Z" fill="#ABDB9F" fill-opacity="0.8"/>
</g>
<g filter="url(#filter1_f_1009_131)">
<path d="M300.5 683C328 749 207.331 1017.55 182 1001C170.17 993.273 30.7719 1043.38 -35.5 927.5C-111.134 795.247 -113.495 493.375 -105.5 455C-105.5 395.5 -104.5 266.5 -35.5 266.5C2.99998 276 25.8902 578.566 104 630C179.566 679.759 316.797 658.05 300.5 683Z" fill="#E3A1CF" fill-opacity="0.6"/>
</g>
</g>
<defs>
<filter id="filter0_f_1009_131" x="-256.225" y="-11.5" width="1097.69" height="1241.24" filterUnits="userSpaceOnUse" color-interpolation-filters="sRGB">
<feFlood flood-opacity="0" result="BackgroundImageFix"/>
<feBlend mode="normal" in="SourceGraphic" in2="BackgroundImageFix" result="shape"/>
<feGaussianBlur stdDeviation="150" result="effect1_foregroundBlur_1009_131"/>
</filter>
<filter id="filter1_f_1009_131" x="-308.608" y="66.5001" width="813.157" height="1138.83" filterUnits="userSpaceOnUse" color-interpolation-filters="sRGB">
<feFlood flood-opacity="0" result="BackgroundImageFix"/>
<feBlend mode="normal" in="SourceGraphic" in2="BackgroundImageFix" result="shape"/>
<feGaussianBlur stdDeviation="100" result="effect1_foregroundBlur_1009_131"/>
</filter>
<clipPath id="clip0_1009_131">
<rect width="375" height="812" rx="30" fill="white"/>
</clipPath>
</defs>
</svg>
