<svg width="120" height="102" viewBox="0 0 120 102" fill="none" xmlns="http://www.w3.org/2000/svg">
<g clip-path="url(#clip0_853_3609)">
<path d="M54.1631 8.93899C56.8476 8.19809 59.6752 7.80227 62.5952 7.80227C73.2599 7.80227 82.6914 13.0818 88.4187 21.1698L83.6756 23.0855L65.7573 27.3016L52.5821 35.7338V27.3016L57.3252 15.1804L54.1631 8.93899Z" fill="white"/>
<path d="M42.4262 55.9941C34.4909 51.688 28.4457 44.0315 26.5066 34.4918C25.6311 30.1847 25.6761 25.9041 26.5066 21.8542L29.6572 21.0434L46.1064 22.4412L46.9462 26.5728L42.4262 55.9941Z" fill="white"/>
<path d="M43.1583 0L47.5002 5.48649L45.2666 18.3096L45.6865 20.3754L31.5017 16.8932H27.9568C30.7262 9.67495 36.097 3.58536 43.1583 0Z" fill="white"/>
<path fill-rule="evenodd" clip-rule="evenodd" d="M91.1008 25.7206C93.0971 29.866 94.2158 34.5138 94.2158 39.4228C94.2158 55.0678 82.8537 68.0591 67.9311 70.5951L68.8535 62.5778L70.2368 48.7113L68.8535 46.4057L73.0035 38.8958L80.621 28.4873L81.3039 27.5541L91.1008 25.7206Z" fill="white"/>
<path d="M65.7573 30.4637L51.4172 38.8958L42.2923 63.6652C43.9303 65.0386 45.7097 66.249 47.6053 67.2715L49.0247 68.0789C53.0186 69.9009 57.4577 71.1111 62.1341 71.1111L67.4701 52.4004L66.4277 47.3279L73.7711 28.9639L65.7573 30.4637Z" fill="white"/>
</g>
<path d="M5.8683 101.086C5.42486 101.086 5.06539 100.728 5.06539 100.286V88.0593C5.06539 87.8417 5.32908 87.7325 5.48391 87.8858C5.63922 88.0397 5.52986 88.3038 5.31084 88.3038H0.802917C0.359478 88.3038 0 87.9457 0 87.5038V86.1334C0 85.6915 0.359478 85.3334 0.802917 85.3334H12.9849C13.4284 85.3334 13.7878 85.6915 13.7878 86.1334V87.5038C13.7878 87.9457 13.4284 88.3038 12.9849 88.3038H8.45764C8.24322 88.3038 8.13464 88.0466 8.28461 87.8939C8.43635 87.7394 8.69974 87.8464 8.69974 88.0626V100.286C8.69974 100.728 8.34027 101.086 7.89683 101.086H5.8683Z" fill="white"/>
<path d="M15.6537 101.086C15.0716 101.086 14.6829 100.488 14.9211 99.9586L21.2882 85.8061C21.4176 85.5185 21.7045 85.3334 22.0209 85.3334H24.616C24.932 85.3334 25.2186 85.5181 25.3483 85.8053L31.7358 99.9577C31.9748 100.487 31.5861 101.086 31.0035 101.086H28.9188C28.5946 101.086 28.3023 100.892 28.1776 100.593L22.8478 87.8467C22.715 87.5289 22.9493 87.1787 23.2948 87.1787C23.6407 87.1787 23.875 87.5294 23.7416 87.8473L18.3908 100.595C18.2659 100.892 17.9738 101.086 17.6501 101.086H15.6537ZM19.0908 97.7103C18.5372 97.7103 18.1497 97.1653 18.3334 96.645L18.7455 95.477C18.8585 95.1567 19.1622 94.9424 19.503 94.9424H26.547C26.8857 94.9424 27.1879 95.1541 27.3025 95.4716L27.7243 96.6395C27.9125 97.1608 27.5248 97.7103 26.9687 97.7103H19.0908Z" fill="white"/>
<path d="M36.0651 101.086C35.6216 101.086 35.2621 100.728 35.2621 100.286V86.1334C35.2621 85.6915 35.6216 85.3334 36.0651 85.3334H42.1447C43.5682 85.3334 44.7948 85.5659 45.8245 86.031C46.8542 86.4811 47.6492 87.1337 48.2095 87.9888C48.7698 88.8439 49.05 89.8641 49.05 91.0493C49.05 92.2194 48.7698 93.2321 48.2095 94.0872C47.6492 94.9424 46.8542 95.6025 45.8245 96.0676C44.7948 96.5176 43.5682 96.7427 42.1447 96.7427H38.461C38.0334 96.7427 37.8184 96.2284 38.1195 95.926C38.4219 95.6222 38.9419 95.8356 38.9419 96.2635V100.286C38.9419 100.728 38.5824 101.086 38.139 101.086H36.0651ZM38.9419 94.264C38.9419 94.7095 38.395 94.9255 38.0887 94.601C37.7924 94.287 38.0158 93.7722 38.4483 93.7722H41.9403C43.076 93.7722 43.924 93.5322 44.4843 93.0521C45.0446 92.572 45.3248 91.9044 45.3248 91.0493C45.3248 90.1791 45.0446 89.504 44.4843 89.024C43.924 88.5439 43.076 88.3038 41.9403 88.3038H38.4483C38.0158 88.3038 37.7924 87.789 38.0887 87.4751C38.395 87.1505 38.9419 87.3665 38.9419 87.812V94.264Z" fill="white"/>
<path d="M55.7705 92.4794C55.7705 92.0375 56.13 91.6794 56.5735 91.6794H62.6225C63.0659 91.6794 63.4254 92.0375 63.4254 92.4794V93.7148C63.4254 94.1566 63.0659 94.5148 62.6225 94.5148H56.5735C56.13 94.5148 55.7705 94.1566 55.7705 93.7148V92.4794ZM56.0431 97.3604C56.0431 97.8022 56.4026 98.1604 56.846 98.1604H63.8945C64.3379 98.1604 64.6974 98.5185 64.6974 98.9604V100.286C64.6974 100.728 64.3379 101.086 63.8945 101.086H53.189C52.7455 101.086 52.386 100.728 52.386 100.286V86.1334C52.386 85.6915 52.7455 85.3334 53.189 85.3334H63.5992C64.0427 85.3334 64.4021 85.6915 64.4021 86.1334V87.4588C64.4021 87.9007 64.0427 88.2588 63.5992 88.2588H56.846C56.4026 88.2588 56.0431 88.617 56.0431 89.0588V97.3604Z" fill="white"/>
<path d="M68.7373 101.333C68.4647 101.333 68.177 101.311 67.8741 101.266C67.7871 101.252 67.6973 101.237 67.6048 101.221C67.2106 101.151 66.9419 100.79 66.9712 100.392L67.0984 98.6657C67.1236 98.3236 67.4617 98.0929 67.806 98.0929C68.4268 98.0929 68.9114 97.8453 69.2597 97.3503C69.608 96.8402 69.8579 96.1126 70.0093 95.1674C70.1607 94.2223 70.2592 93.0746 70.3046 91.7244L70.5043 86.1051C70.5196 85.6745 70.8743 85.3334 71.3067 85.3334H81.9493C82.3928 85.3334 82.7523 85.6915 82.7523 86.1334V100.286C82.7523 100.728 82.3928 101.086 81.9493 101.086H79.9208C79.4774 101.086 79.1179 100.728 79.1179 100.286V88.0593C79.1179 87.8417 79.3816 87.7325 79.5364 87.8858C79.6917 88.0397 79.5824 88.3038 79.3634 88.3038H73.4376C73.2413 88.3038 73.1351 88.0748 73.2623 87.9259C73.4035 87.7606 73.6747 87.8651 73.6676 88.082L73.5528 91.5894C73.5074 93.1346 73.4014 94.5073 73.2348 95.7075C73.0682 96.9077 72.8108 97.9278 72.4625 98.768C72.1142 99.6081 71.6372 100.246 71.0315 100.681C70.4257 101.116 69.661 101.333 68.7373 101.333Z" fill="white"/>
<path d="M98.3573 101.086C98.0857 101.086 97.8325 100.949 97.6843 100.722L93.4242 94.1978C93.1761 93.8178 93.2941 93.3085 93.6843 93.0754L95.2839 92.1197C95.6536 91.8989 96.1322 92.0082 96.3684 92.3674L101.287 99.8474C101.637 100.379 101.254 101.086 100.615 101.086H98.3573ZM88.3895 101.086C87.9461 101.086 87.5866 100.728 87.5866 100.286V86.1334C87.5866 85.6915 87.9461 85.3334 88.3895 85.3334H90.4408C90.8842 85.3334 91.2437 85.6915 91.2437 86.1334V100.286C91.2437 100.728 90.8842 101.086 90.4408 101.086H88.3895ZM90.979 94.7398C90.5356 94.7398 90.1761 94.3817 90.1761 93.9398V92.5019C90.1761 92.06 90.5356 91.7019 90.979 91.7019H94.9156C95.359 91.7019 95.7185 92.06 95.7185 92.5019V93.9398C95.7185 94.3817 95.359 94.7398 94.9156 94.7398H90.979ZM96.5611 93.2124C96.3923 93.4595 96.0994 93.5923 95.8015 93.5566L94.1842 93.3631C93.5934 93.2924 93.2824 92.6283 93.6075 92.1317L97.8205 85.6963C97.9687 85.4699 98.2217 85.3334 98.493 85.3334H100.425C101.069 85.3334 101.451 86.0523 101.089 86.5834L96.5611 93.2124Z" fill="white"/>
<path d="M103.846 101.086C103.264 101.086 102.876 100.488 103.114 99.9586L109.481 85.8061C109.61 85.5185 109.897 85.3334 110.214 85.3334H112.809C113.125 85.3334 113.411 85.5181 113.541 85.8053L119.928 99.9577C120.167 100.487 119.779 101.086 119.196 101.086H117.111C116.787 101.086 116.495 100.892 116.37 100.593L111.04 87.8467C110.908 87.5289 111.142 87.1787 111.487 87.1787C111.833 87.1787 112.068 87.5294 111.934 87.8473L106.583 100.595C106.459 100.892 106.166 101.086 105.843 101.086H103.846ZM107.283 97.7103C106.73 97.7103 106.342 97.1653 106.526 96.645L106.938 95.477C107.051 95.1567 107.355 94.9424 107.696 94.9424H114.74C115.078 94.9424 115.381 95.1541 115.495 95.4716L115.917 96.6395C116.105 97.1608 115.717 97.7103 115.161 97.7103H107.283Z" fill="white"/>
<defs>
<clipPath id="clip0_853_3609">
<rect width="71.1111" height="71.1111" fill="white" transform="translate(24.4445)"/>
</clipPath>
</defs>
</svg>
