<svg width="32" height="32" viewBox="0 0 32 32" fill="none" xmlns="http://www.w3.org/2000/svg">
<g clip-path="url(#clip0_853_3592)">
<path d="M13.3732 4.02255C14.5812 3.68914 15.8536 3.51102 17.1677 3.51102C21.9667 3.51102 26.2109 5.88682 28.7882 9.52642L26.6538 10.3885L18.5906 12.2857L12.6617 16.0802V12.2857L14.7961 6.83118L13.3732 4.02255Z" fill="white"/>
<path d="M8.09158 25.1974C4.52069 23.2596 1.80033 19.8142 0.927761 15.5213C0.533792 13.5831 0.554051 11.6568 0.927761 9.83437L2.34554 9.46951L9.74766 10.0985L10.1256 11.9577L8.09158 25.1974Z" fill="white"/>
<path d="M8.42102 0L10.3749 2.46892L9.36975 8.23931L9.5587 9.16891L3.17558 7.60192H1.58035C2.82657 4.35373 5.24342 1.61341 8.42102 0Z" fill="white"/>
<path fillRule="evenodd" clipRule="evenodd" d="M29.9952 11.5743C30.8935 13.4397 31.3969 15.5312 31.3969 17.7403C31.3969 24.7805 26.284 30.6266 19.5688 31.7678L19.9838 28.16L20.6064 21.9201L19.9838 20.8826L21.8514 17.5031L25.2792 12.8193L25.5866 12.3993L29.9952 11.5743Z" fill="white"/>
<path d="M18.5906 13.7086L12.1375 17.5031L8.03131 28.6494C8.76844 29.2674 9.56914 29.812 10.4222 30.2722L11.0609 30.6355C12.8581 31.4554 14.8558 32 16.9601 32L19.3613 23.5802L18.8923 21.2976L22.1968 13.0337L18.5906 13.7086Z" fill="white"/>
</g>
<defs>
<clipPath id="clip0_853_3592">
<rect width="32" height="32" fill="white"/>
</clipPath>
</defs>
</svg>
