<svg width="150" height="32" viewBox="0 0 150 32" fill="none" xmlns="http://www.w3.org/2000/svg">
<g clip-path="url(#clip0_853_3598)">
<path d="M13.3732 4.02255C14.5812 3.68914 15.8536 3.51102 17.1677 3.51102C21.9667 3.51102 26.2109 5.88682 28.7882 9.52642L26.6538 10.3885L18.5906 12.2857L12.6617 16.0802V12.2857L14.7961 6.83118L13.3732 4.02255Z" fill="white"/>
<path d="M8.09158 25.1974C4.52069 23.2596 1.80033 19.8142 0.927761 15.5213C0.533792 13.5831 0.554051 11.6568 0.927761 9.83437L2.34554 9.46951L9.74766 10.0985L10.1256 11.9577L8.09158 25.1974Z" fill="white"/>
<path d="M8.42102 0L10.3749 2.46892L9.36975 8.23931L9.5587 9.16891L3.17558 7.60192H1.58035C2.82657 4.35373 5.24342 1.61341 8.42102 0Z" fill="white"/>
<path fillRule="evenodd" clipRule="evenodd" d="M29.9952 11.5743C30.8935 13.4397 31.3969 15.5312 31.3969 17.7403C31.3969 24.7805 26.284 30.6266 19.5688 31.7678L19.9838 28.16L20.6064 21.9201L19.9838 20.8826L21.8514 17.5031L25.2792 12.8193L25.5866 12.3993L29.9952 11.5743Z" fill="white"/>
<path d="M18.5906 13.7086L12.1375 17.5031L8.03131 28.6494C8.76844 29.2674 9.56914 29.812 10.4222 30.2722L11.0609 30.6355C12.8581 31.4554 14.8558 32 16.9601 32L19.3613 23.5802L18.8923 21.2976L22.1968 13.0337L18.5906 13.7086Z" fill="white"/>
</g>
<path d="M46.8814 22.9772C46.4824 22.9772 46.1588 22.6548 46.1588 22.2572V11.2533C46.1588 11.0575 46.3962 10.9592 46.5355 11.0972C46.6753 11.2357 46.5769 11.4734 46.3797 11.4734H42.3226C41.9235 11.4734 41.6 11.1511 41.6 10.7534V9.51999C41.6 9.12234 41.9235 8.79999 42.3226 8.79999H53.2864C53.6855 8.79999 54.009 9.12234 54.009 9.51999V10.7534C54.009 11.1511 53.6855 11.4734 53.2864 11.4734H49.2119C49.0189 11.4734 48.9212 11.2419 49.0561 11.1045C49.1927 10.9654 49.4297 11.0618 49.4297 11.2563V22.2572C49.4297 22.6548 49.1062 22.9772 48.7071 22.9772H46.8814Z" fill="white"/>
<path d="M55.6883 22.9772C55.1644 22.9772 54.8146 22.439 55.0289 21.9627L60.7594 9.22548C60.8758 8.96659 61.134 8.79999 61.4188 8.79999H63.7544C64.0388 8.79999 64.2968 8.96623 64.4134 9.22469L70.1622 21.9619C70.3773 22.4383 70.0275 22.9772 69.5032 22.9772H67.6269C67.3351 22.9772 67.072 22.8024 66.9598 22.5341L62.163 11.062C62.0434 10.776 62.2543 10.4607 62.5653 10.4607C62.8766 10.4607 63.0875 10.7764 62.9674 11.0625L58.1517 22.535C58.0393 22.8028 57.7764 22.9772 57.485 22.9772H55.6883ZM58.7817 19.9392C58.2835 19.9392 57.9347 19.4487 58.1 18.9804L58.4709 17.9293C58.5726 17.641 58.8459 17.4481 59.1526 17.4481H65.4923C65.7971 17.4481 66.0691 17.6386 66.1723 17.9243L66.5518 18.9755C66.7212 19.4447 66.3723 19.9392 65.8718 19.9392H58.7817Z" fill="white"/>
<path d="M74.0585 22.9772C73.6594 22.9772 73.3359 22.6548 73.3359 22.2572V9.51999C73.3359 9.12234 73.6594 8.79999 74.0585 8.79999H79.5302C80.8113 8.79999 81.9153 9.00927 82.842 9.42784C83.7688 9.8329 84.4843 10.4202 84.9886 11.1899C85.4928 11.9595 85.745 12.8776 85.745 13.9443C85.745 14.9975 85.4928 15.9088 84.9886 16.6785C84.4843 17.4481 83.7688 18.0422 82.842 18.4607C81.9153 18.8658 80.8113 19.0683 79.5302 19.0683H76.2149C75.8301 19.0683 75.6366 18.6055 75.9075 18.3333C76.1797 18.0599 76.6477 18.252 76.6477 18.6371V22.2572C76.6477 22.6548 76.3242 22.9772 75.9251 22.9772H74.0585ZM76.6477 16.8376C76.6477 17.2385 76.1555 17.4329 75.8798 17.1408C75.6131 16.8583 75.8142 16.3949 76.2034 16.3949H79.3462C80.3684 16.3949 81.1316 16.1789 81.6359 15.7468C82.1401 15.3148 82.3923 14.7139 82.3923 13.9443C82.3923 13.1612 82.1401 12.5536 81.6359 12.1215C81.1316 11.6894 80.3684 11.4734 79.3462 11.4734H76.2034C75.8142 11.4734 75.6131 11.01 75.8798 10.7275C76.1555 10.4354 76.6477 10.6298 76.6477 11.0308V16.8376Z" fill="white"/>
<path d="M91.7935 15.2314C91.7935 14.8337 92.117 14.5114 92.5161 14.5114H97.9602C98.3593 14.5114 98.6828 14.8337 98.6828 15.2314V16.3433C98.6828 16.7409 98.3593 17.0633 97.9602 17.0633H92.5161C92.117 17.0633 91.7935 16.7409 91.7935 16.3433V15.2314ZM92.0388 19.6243C92.0388 20.0219 92.3623 20.3443 92.7614 20.3443H99.105C99.5041 20.3443 99.8277 20.6666 99.8277 21.0643V22.2572C99.8277 22.6548 99.5041 22.9772 99.105 22.9772H89.47C89.0709 22.9772 88.7474 22.6548 88.7474 22.2572V9.51999C88.7474 9.12234 89.0709 8.79999 89.47 8.79999H98.8393C99.2384 8.79999 99.5619 9.12234 99.5619 9.51999V10.7129C99.5619 11.1105 99.2384 11.4329 98.8393 11.4329H92.7614C92.3623 11.4329 92.0388 11.7553 92.0388 12.1529V19.6243Z" fill="white"/>
<path d="M103.464 23.2C103.218 23.2 102.959 23.1797 102.687 23.1392C102.608 23.127 102.528 23.1135 102.444 23.0988C102.09 23.0361 101.848 22.711 101.874 22.353L101.989 20.7991C102.011 20.4912 102.315 20.2835 102.625 20.2835C103.184 20.2835 103.62 20.0607 103.934 19.6152C104.247 19.1561 104.472 18.5013 104.608 17.6506C104.745 16.8 104.833 15.7671 104.874 14.5519L105.054 9.49451C105.068 9.10702 105.387 8.79999 105.776 8.79999H115.354C115.753 8.79999 116.077 9.12234 116.077 9.51999V22.2572C116.077 22.6548 115.753 22.9772 115.354 22.9772H113.529C113.13 22.9772 112.806 22.6548 112.806 22.2572V11.2533C112.806 11.0575 113.043 10.9592 113.183 11.0972C113.323 11.2357 113.224 11.4734 113.027 11.4734H107.694C107.517 11.4734 107.422 11.2673 107.536 11.1333C107.663 10.9845 107.907 11.0785 107.901 11.2737L107.797 14.4304C107.757 15.8211 107.661 17.0565 107.511 18.1367C107.361 19.2169 107.13 20.135 106.816 20.8911C106.503 21.6472 106.073 22.2211 105.528 22.6126C104.983 23.0042 104.295 23.2 103.464 23.2Z" fill="white"/>
<path d="M130.122 22.9772C129.877 22.9772 129.649 22.854 129.516 22.6498L125.682 16.7779C125.458 16.436 125.565 15.9776 125.916 15.7678L127.356 14.9077C127.688 14.7089 128.119 14.8073 128.332 15.1306L132.758 21.8626C133.073 22.3415 132.728 22.9772 132.154 22.9772H130.122ZM121.151 22.9772C120.751 22.9772 120.428 22.6548 120.428 22.2572V9.51999C120.428 9.12234 120.751 8.79999 121.151 8.79999H122.997C123.396 8.79999 123.719 9.12234 123.719 9.51999V22.2572C123.719 22.6548 123.396 22.9772 122.997 22.9772H121.151ZM123.481 17.2658C123.082 17.2658 122.758 16.9435 122.758 16.5458V15.2516C122.758 14.854 123.082 14.5316 123.481 14.5316H127.024C127.423 14.5316 127.747 14.854 127.747 15.2516V16.5458C127.747 16.9435 127.423 17.2658 127.024 17.2658H123.481ZM128.505 15.8911C128.353 16.1135 128.089 16.233 127.821 16.2009L126.366 16.0267C125.834 15.9631 125.554 15.3654 125.847 14.9185L129.638 9.12663C129.772 8.92286 129.999 8.79999 130.244 8.79999H131.982C132.563 8.79999 132.906 9.44706 132.58 9.92505L128.505 15.8911Z" fill="white"/>
<path d="M135.062 22.9772C134.538 22.9772 134.188 22.439 134.402 21.9627L140.133 9.22548C140.249 8.96659 140.507 8.79999 140.792 8.79999H143.128C143.412 8.79999 143.67 8.96623 143.787 9.22469L149.536 21.9619C149.751 22.4383 149.401 22.9772 148.877 22.9772H147C146.709 22.9772 146.445 22.8024 146.333 22.5341L141.536 11.062C141.417 10.776 141.628 10.4607 141.939 10.4607C142.25 10.4607 142.461 10.7764 142.341 11.0625L137.525 22.535C137.413 22.8028 137.15 22.9772 136.858 22.9772H135.062ZM138.155 19.9392C137.657 19.9392 137.308 19.4487 137.473 18.9804L137.844 17.9293C137.946 17.641 138.219 17.4481 138.526 17.4481H144.866C145.17 17.4481 145.442 17.6386 145.546 17.9243L145.925 18.9755C146.095 19.4447 145.746 19.9392 145.245 19.9392H138.155Z" fill="white"/>
<defs>
<clipPath id="clip0_853_3598">
<rect width="32" height="32" fill="white"/>
</clipPath>
</defs>
</svg>
